<?xml version="1.0" encoding="utf-8"?>
<!-- Generator: Adobe Illustrator 22.0.1, SVG Export Plug-In . SVG Version: 6.00 Build 0)  -->
<svg version="1.1" id="Layer_1" xmlns="http://www.w3.org/2000/svg" xmlns:xlink="http://www.w3.org/1999/xlink" x="0px" y="0px"
	 viewBox="0 0 92.3 69.1" style="enable-background:new 0 0 92.3 69.1;" xml:space="preserve">
<style type="text/css">
	.st0{fill:#008837;}
</style>
<title>Artboard 3</title>
<path d="M67.8,0.2h10l-0.8,3h-6.5l-0.6,2.1h5.9L75,8.2h-5.9L68,12.6h-3.5L67.8,0.2z"/>
<path d="M79.1,0.2h3.5L84.2,5l4.2-4.8h3.9L89,12.7h-3.5l1.9-7.1l-4.5,4.9h-0.1L81,5.6l-1.9,7.1h-3.4L79.1,0.2z"/>
<path class="st0" d="M3.3,0.2h3.5L8.5,5l4.2-4.8h3.9l-3.3,12.5H9.8l1.9-7.1l-4.5,4.9H7.2L5.3,5.6l-1.9,7.1H0L3.3,0.2z"/>
<path class="st0" d="M16.2,7.3c0-4.1,3.3-7.3,7.4-7.3c3.5,0,5.9,2.4,5.9,5.6c0,4.1-3.4,7.3-7.4,7.3C18.6,12.9,16.2,10.5,16.2,7.3z
	 M26.1,5.9c0.1-1.4-0.9-2.6-2.3-2.7c-0.1,0-0.3,0-0.4,0c-2.2,0-3.6,2.1-3.6,4c-0.1,1.4,0.9,2.6,2.3,2.7c0.1,0,0.3,0,0.4,0
	C24.5,9.7,26.1,7.9,26.1,5.9z"/>
<path class="st0" d="M32.5,0.2h3.2l3.2,6.9l1.9-6.9h3.4l-3.4,12.4h-3l-3.4-7.2l-1.9,7.2h-3.4L32.5,0.2z"/>
<path class="st0" d="M62,6.1l-5.8,6.5h-4L58,6.2l-2.5-5.9h3.8L62,6.1z"/>
<path class="st0" d="M60.4,3l2.4-2.8h4.1l-5,5.9"/>
<polygon class="st0" points="54.6,3.2 55.4,0.2 45.5,0.2 42.1,12.7 52.2,12.7 53,9.7 46.3,9.7 49.2,6.1 48.1,3.2 48.1,3.2 "/>
<path d="M4.3,53.2c-2.6-2.3-4-5.6-4-9.1c0-2.2,0.6-4.4,1.8-6.2c1.1-1.8,2.7-3.3,4.6-4.3c-1.2-0.8-2.1-1.9-2.7-3.2
	c-0.7-1.3-1.1-2.8-1.1-4.3c0-2.9,1.1-5.6,3.2-7.5c2.1-2.1,5-3.2,8-3.1c3-0.1,5.9,1,8,3.1c2.1,1.9,3.3,4.7,3.2,7.5
	c0,1.5-0.4,2.9-1.1,4.3c-0.6,1.3-1.6,2.4-2.7,3.2c1.9,1,3.5,2.5,4.6,4.3c1.2,1.9,1.8,4,1.8,6.2c0,3.5-1.4,6.8-4,9.1
	c-2.7,2.5-6.2,3.8-9.8,3.7C10.5,57,7,55.7,4.3,53.2z M8.4,38.9c-1.5,1.3-2.3,3.2-2.3,5.2c0,2,0.8,3.9,2.3,5.2
	c3.3,2.8,8.2,2.8,11.5,0c1.5-1.3,2.3-3.2,2.3-5.2c0-2-0.8-3.9-2.3-5.2C16.5,36.1,11.7,36.1,8.4,38.9L8.4,38.9z M10.2,22.5
	c-2,2-2.1,5.2-0.1,7.3c0,0,0.1,0.1,0.1,0.1c2.2,2,5.6,2,7.8,0c2-2,2.1-5.2,0.1-7.3c0,0-0.1-0.1-0.1-0.1
	C15.7,20.5,12.4,20.5,10.2,22.5z"/>
<path d="M69.8,47.3c0.7,1.3,1.7,2.3,3,3c1.4,0.8,3,1.2,4.5,1.2c2.2,0,4.3-0.8,5.9-2.4c3.3-3.3,3.3-8.6,0-11.9
	c-1.7-1.6-3.9-2.4-6.2-2.4c-1.6,0-3.1,0.2-4.7,0.6v-3.7l8.6-10.1H67v-5.5h22.4v3.7L80.6,30c3,0.4,5.8,2,7.7,4.4
	c2.1,2.4,3.2,5.5,3.1,8.7c0.1,7.5-6,13.7-13.5,13.8c-0.1,0-0.2,0-0.3,0c-2.6,0-5.2-0.6-7.6-1.8c-2.2-1.1-4-2.9-5.2-5.2L69.8,47.3z"
	/>
<path d="M53.9,51.7c1-1,2.7-1.1,3.8,0c1,1,1.1,2.7,0,3.8c-1,1-2.7,1.1-3.8,0c-0.5-0.5-0.8-1.2-0.8-1.9
	C53.1,52.8,53.4,52.1,53.9,51.7z"/>
<path d="M53,19.5c-5.6-5.3-14.3-5.3-19.9,0c-2.6,2.6-4.1,6.1-4,9.8c-0.1,3.6,1.3,7.1,3.9,9.7c2.5,2.6,5.9,4,9.5,4
	c0.7,0,1.5,0,2.2-0.1l-8.8,13.5h6.5l9.6-14.5c1.5-2.1,2.7-4.3,3.8-6.6c0.9-1.9,1.3-4,1.3-6.2C57,25.5,55.6,22,53,19.5z M35.2,29.1
	c0-4.4,3.6-7.9,7.9-7.9s7.9,3.6,7.9,7.9s-3.6,7.9-7.9,7.9C38.7,37.1,35.2,33.5,35.2,29.1z"/>
<path d="M2.7,66.1c-0.6,0-1.2-0.2-1.6-0.6c-0.3-0.3-0.4-0.7-0.4-1.1c0-0.5,0.2-1,0.6-1.3c0.4-0.3,0.9-0.5,1.4-0.5
	c0.4,0,0.9,0.1,1.3,0.3c0.4,0.2,0.7,0.6,0.8,1c0,0.1,0,0.3-0.2,0.3c0,0,0,0,0,0c-0.1,0-0.1,0-0.2,0c-0.1,0-0.1-0.1-0.2-0.2
	c-0.1-0.3-0.3-0.6-0.6-0.7c-0.3-0.1-0.7-0.2-1-0.2c-0.4,0-0.7,0.1-1,0.4c-0.3,0.2-0.4,0.6-0.5,0.9c0,0.3,0.1,0.5,0.3,0.7
	c0.3,0.3,0.8,0.5,1.2,0.4c0.1,0,0.3,0.1,0.3,0.3c0,0.1,0,0.1-0.1,0.2C2.7,66,2.7,66,2.7,66.1L2.7,66.1z M1.5,68.7
	c-0.4-0.2-0.7-0.6-0.8-1c0-0.1,0-0.1,0-0.2c0-0.1,0.1-0.1,0.2-0.1c0.1,0,0.1,0,0.2,0c0.1,0,0.1,0.1,0.1,0.2c0.1,0.3,0.3,0.6,0.6,0.7
	c0.3,0.1,0.7,0.2,1,0.2c0.4,0,0.7-0.1,1-0.4c0.3-0.2,0.4-0.6,0.5-0.9c0-0.3-0.1-0.5-0.3-0.7c-0.3-0.3-0.8-0.5-1.2-0.4
	c-0.1,0-0.1,0-0.2-0.1c-0.1-0.1-0.1-0.3,0-0.4c0,0,0,0,0,0c0-0.1,0.1-0.1,0.2-0.1c0.6,0,1.2,0.2,1.6,0.6c0.3,0.3,0.4,0.7,0.4,1.1
	c0,0.5-0.2,1-0.6,1.3C3.8,68.8,3.3,69,2.8,69C2.3,69,1.9,68.9,1.5,68.7z"/>
<path d="M11.3,63.1H9.5c-0.1,0-0.1,0-0.2-0.1c-0.1-0.1-0.1-0.3,0-0.4c0-0.1,0.1-0.1,0.2-0.1h4.1c0.1,0,0.3,0.1,0.3,0.3
	c0,0.1,0,0.1-0.1,0.2c0,0.1-0.1,0.1-0.2,0.1h-1.8v5.6c0,0.1-0.1,0.3-0.2,0.3c0,0,0,0,0,0c-0.1,0-0.1,0-0.2-0.1
	c-0.1-0.1-0.1-0.1-0.1-0.2L11.3,63.1z"/>
<path d="M17.9,69c-0.1,0-0.1-0.1-0.1-0.1c0-0.1,0-0.1,0-0.2l0.6-1.5l0,0l1.8-4.4l0,0l0,0l0,0l0,0l0,0h0.1h0.1h0.1l0,0l0,0l0,0l0,0
	l0,0l1.8,4.4l0,0l0.6,1.5c0,0.1,0,0.1,0,0.2c0,0.1-0.1,0.1-0.1,0.1h-0.1c-0.1,0-0.2-0.1-0.3-0.2l-0.6-1.3h-3l-0.5,1.3
	c0,0.1-0.1,0.2-0.3,0.2L17.9,69L17.9,69z M21.8,67l-1.4-3.4L19,67H21.8z"/>
<path d="M32.4,62.7c0.1,0,0.1,0.1,0.1,0.2c0,0.1,0,0.1-0.1,0.2l-2.2,2.7v3c0,0.1,0,0.1-0.1,0.2c0,0.1-0.1,0.1-0.2,0.1
	c-0.1,0-0.3-0.1-0.3-0.3v-3L27.5,63c0-0.1-0.1-0.1-0.1-0.2c0-0.1,0-0.1,0.1-0.2c0.1-0.1,0.3-0.1,0.4,0l2,2.6l2-2.6
	c0-0.1,0.1-0.1,0.2-0.1C32.2,62.5,32.3,62.5,32.4,62.7z"/>
<path d="M45.7,69c-0.1,0-0.1-0.1-0.1-0.1c0-0.1,0-0.1,0-0.2l0.6-1.5l0,0l1.8-4.4l0,0l0,0l0,0l0,0l0,0h0.1h0.1h0.1l0,0l0,0l0,0l0,0
	l0,0l1.8,4.4l0,0l0.6,1.5c0,0.1,0,0.1,0,0.2c0,0.1-0.1,0.1-0.1,0.1h-0.1c-0.1,0-0.2-0.1-0.3-0.2l-0.6-1.3h-3.1L46,68.8
	C46,68.9,45.9,69,45.7,69L45.7,69L45.7,69z M49.6,67l-1.4-3.4L46.8,67H49.6z"/>
<path d="M60.5,69c-0.1,0-0.1,0-0.2-0.1c-0.1,0-0.1-0.1-0.1-0.2v-2.7h-3.7v2.7c0,0.1,0,0.1-0.1,0.2c0,0.1-0.1,0.1-0.2,0.1
	c-0.1,0-0.3-0.1-0.3-0.3v-5.9c0-0.1,0.1-0.3,0.3-0.3c0.1,0,0.1,0,0.2,0.1c0.1,0,0.1,0.1,0.1,0.2v2.7h3.7v-2.7c0-0.1,0-0.1,0.1-0.2
	c0-0.1,0.1-0.1,0.2-0.1c0.1,0,0.3,0.1,0.3,0.3v5.9C60.8,68.9,60.7,69,60.5,69z"/>
<path d="M66.7,69c-0.1,0-0.3-0.1-0.3-0.3v-5.9c0-0.1,0-0.1,0.1-0.2c0-0.1,0.1-0.1,0.2-0.1h3.5c0.1,0,0.1,0,0.2,0.1
	c0.1,0,0.1,0.1,0.1,0.2c0,0.1,0,0.1-0.1,0.2c0,0.1-0.1,0.1-0.2,0.1H67v2.4h2.4c0.1,0,0.3,0.1,0.3,0.3c0,0.1-0.1,0.3-0.3,0.3H67v2.4
	h3.3c0.1,0,0.3,0.1,0.3,0.3c0,0.1-0.1,0.3-0.3,0.3l0,0L66.7,69z"/>
<path d="M75.5,69c-0.1,0-0.1-0.1-0.1-0.1c0-0.1,0-0.1,0-0.2l0.6-1.5l0,0l1.8-4.4l0,0l0,0l0,0l0,0l0,0h0.1h0.1H78l0,0l0,0l0,0l0,0
	l0,0l1.8,4.4l0,0l0.6,1.5c0,0.1,0,0.1,0,0.2c0,0.1-0.1,0.1-0.1,0.1h-0.1c-0.1,0-0.2-0.1-0.3-0.2l-0.6-1.3h-3.3l-0.6,1.3
	C75.6,68.9,75.5,69,75.5,69h-0.1H75.5z M79.4,67L78,63.6L76.6,67H79.4z"/>
<path d="M85.9,69c-0.1,0-0.1,0-0.2-0.1c-0.1,0-0.1-0.1-0.1-0.2v-5.9c0-0.1,0-0.1,0.1-0.2c0-0.1,0.1-0.1,0.2-0.1h1.5
	c1.8,0.1,3.1,1.6,3,3.4c-0.1,1.6-1.4,2.9-3,3L85.9,69L85.9,69z M86.1,68.5h1.2c1.5,0.1,2.7-1,2.8-2.5s-1-2.7-2.5-2.8
	c-0.1,0-0.2,0-0.3,0h-1.2L86.1,68.5z"/>
</svg>
