<svg xmlns="http://www.w3.org/2000/svg" viewBox="0 0 411 101.2" style="enable-background:new 0 0 411 101.2" xml:space="preserve"><path d="M412 101.2h-18.3c-.6 0-1.4-.3-1.9-.7-14.5-12.9-28.9-25.9-43.4-38.9-3.6-3.2-7.1-6.4-10.7-9.6-.6-.5-1.5-.9-2.2-1-1.3-.2-2.5 0-4 0v50.1h-14.8V.1h14.7v44.2c.5 0 .8.1 1.1.1 2.4 0 4.7.1 7.1 0 .8 0 1.7-.4 2.2-.9 9.8-9.1 19.6-18.3 29.3-27.5 5.4-5.1 10.8-10.1 16.2-15.2.6-.6 1.2-.8 2-.8h11.6c-16.7 15.8-33.1 31.3-49.7 47 20.3 18 40.6 35.9 60.9 53.9 0 .1 0 .2-.1.3zM180.9 101.2c3.2-6.3 6.3-12.3 9.4-18.4 8-15.5 15.9-31 23.9-46.6 6.1-11.8 12.2-23.7 18.2-35.5.3-.6.6-.8 1.3-.8h14.4c.7 0 1.1.2 1.5.9 6.4 12.5 12.8 24.9 19.2 37.4 10.5 20.4 21 40.8 31.5 61.3.2.5.5.9.8 1.6-.6 0-1 .1-1.4.1h-13.2c-.9 0-1.4-.3-1.8-1-4.6-8.9-9.3-17.8-13.9-26.8-.7-1.3-1.5-1.8-3-1.8h-57.9c-1.2 0-1.8.4-2.4 1.5-4.6 9-9.3 17.9-13.9 26.9-.5 1-1 1.3-2.1 1.3-3.1-.1-6.2 0-9.2 0-.3-.1-.7-.1-1.4-.1zm58.2-89.8c-9.1 17.8-18 35.3-27 52.9h54.3c-9.2-17.6-18.2-35.1-27.3-52.9zM0 0h43.4c7.8 0 15.3 1.2 22.3 4.8C75.9 10 78.9 18 78.6 27.4c-.3 6.9-2.6 13.1-7.4 18.1-3.9 4.1-8.8 6.8-14.1 8.8-6.5 2.4-13.2 3.7-20 4.3-7 .6-14 .8-20.9 1.1-.4 0-.9.1-1.4.1v41.3H.1C0 67.4 0 33.8 0 0zm14.8 7.1v45.1c8.9.2 17.8.1 26.4-2.1 3.2-.8 6.4-1.9 9.4-3.4 7.8-3.7 11.7-10 12.1-18.7.3-8.1-3.2-13.9-10.3-17.5-4.8-2.5-9.9-3.4-15.2-3.4H14.8zM95.9 101.1V.1h71.4v7.1h-56.6v37.5h47.4v7.2h-47.3v42h60.3v7.1c-25 .1-50.1.1-75.2.1z"/><path d="M35 25.8h7.5v-5.1h2.3v12.5h-2.2v-5.6h-7.7v5.7h-2.2V20.8H35v5zM54.4 25.9v1.4h-5.5v4.4h7c0 .5.1.9.1 1.4h-9.5V20.6h9v1.3H49v3.9c1.7.1 3.5.1 5.4.1zM25.9 33.1h-2.4V22h-5.6v-1.3h13.7v1.4h-4.5c-.9 0-1.2.2-1.2 1.1.1 2.9 0 5.8 0 8.6v1.3z"/></svg>