<svg width="87" height="55" viewBox="0 0 87 55" fill="none" xmlns="http://www.w3.org/2000/svg">
<rect width="87" height="55" fill="black"/>
<path fill-rule="evenodd" clip-rule="evenodd" d="M67.4605 38.6375C67.0201 39.5441 65.4034 41.521 59.5903 41.9446C53.4311 41.9446 51.998 37.8531 50.7331 34.2349C49.291 30.057 47.3409 29.6421 39.6203 29.6421H36.77V41.3491H31.1372V13.9328L40.1025 13.8545C47.3994 13.7791 52.2506 14.6381 55.1413 16.4835C57.0734 17.717 58.0017 19.3649 58.0017 21.3821C58.0017 24.4977 55.7023 26.8309 51.5148 28.0851C54.3325 29.1036 55.9931 30.9234 56.9314 33.8815C58.3645 38.3565 59.882 39.6853 63.193 39.3516L63.3361 39.3369C63.3328 39.3369 64.8943 39.143 65.8134 38.819L67.6228 38.1794L67.4605 38.6375ZM81.6365 20.1395L55.289 3.10737C50.9999 0.321837 47.0873 0.861091 45.5946 1.22328L21.4687 8.17138C16.1895 9.6911 13.4992 13.1864 12.9664 13.9429L2.46653 29.323C0.937754 31.5619 2.36515 33.2764 3.53454 34.1975L33.7676 53.7533C35.1185 54.4762 37.5856 55.3397 40.7987 54.5611L65.6433 47.4067C67.4414 46.8023 71.4217 45.2145 73.5397 42.4956L84.6502 26.2228C85.1818 25.1275 85.6403 22.7401 81.6365 20.1395ZM49.8633 18.3818C48.0865 17.255 44.9152 16.7435 40.1249 16.816L36.77 16.8599V26.715H39.4694C47.628 26.715 51.5937 25.0255 51.5937 21.5382C51.5937 20.1489 51.0269 19.1201 49.8633 18.3818Z" fill="white"/>
</svg>
