<svg width="160" height="122" viewBox="0 0 160 122" fill="none" xmlns="http://www.w3.org/2000/svg">
<path d="M153.333 55.8887C149.173 55.8887 146.187 57.9623 144.347 63.6445V57.1005C144.347 56.9928 144.347 56.8043 144.16 56.8043H122.827C121.227 56.2388 119.44 55.9156 117.467 55.9156C106.347 55.9156 98.0533 65.8528 98.0533 78.079C98.0533 87.5853 103.173 95.6912 110.747 98.7343C110.747 98.7343 99.92 98.5458 99.0667 98.5458C96.72 98.5458 95.6 96.6607 95.6 94.3178V10.2962C95.6 10.1077 95.6 10 95.4133 10H82.08C81.8933 10 81.8933 10.4039 82.08 10.4039H87.3867C87.76 10.4039 88.0533 10.5117 88.0533 10.8079V91.0593V91.2208C86.7467 95.9874 83.8133 98.5189 81.2 98.5189C79.4667 98.5189 78.4 97.5225 78.4 95.6374V58.2047C78.4 58.0162 78.5867 57.8007 79.0667 57.8007H85.44C85.9467 57.8007 85.9467 56.8312 85.44 56.8312H78.9867C78.5067 56.8312 78.32 56.7235 78.32 56.535L78.4533 43.8241C78.4533 43.6356 78.16 43.6356 78.08 43.8241C77.36 47.2172 74.5867 50.018 70.7733 50.1526L70.6933 56.535C70.6933 56.7235 70.5067 56.8312 70.1067 56.8312H63.68C63.2533 56.8312 63.2267 57.8007 63.68 57.8007H70.1867C70.56 57.8007 70.7733 57.9892 70.7733 58.2047V90.2783C70.7733 92.7289 71.1733 94.7217 71.92 96.2298C71.44 97.1454 69.7867 98.5189 68.16 98.5189C66.72 98.5189 65.6533 97.5225 65.6533 95.2334V73.8779C65.6533 61.4632 60.3467 55.8887 50.48 55.8887C42.9333 55.8887 39.1733 60.1706 39.1733 63.4291C39.1733 65.5027 40.24 67.711 42.9333 67.711C45.84 67.711 46.9867 66.0144 46.9867 64.3447C46.9867 62.8636 46.32 62.3519 46.32 60.763C46.32 57.5853 48.0533 56.2926 50.48 56.2926C53.9467 56.2926 58.0267 58.474 58.0267 66.4183V73.9587C58.0267 76.0323 51.9467 76.4363 46.64 76.9479C42.88 77.3519 34.3733 79.1293 34.3733 89.5781C34.3733 94.4794 36.88 97.307 40.32 98.7074H32.08C31.7067 98.7074 31.4933 98.5997 31.4933 98.3034V23.6535C31.4933 23.465 31.68 23.2496 32.08 23.2496H34.5067C48.8 23.2496 54.32 32.298 54.32 43.8241C54.32 44.0126 54.6933 44.0126 54.6933 43.8241V22.9803C54.6933 22.8725 54.6933 22.684 54.5067 22.684H0.293333C0.106667 22.684 0 22.8725 0 22.9803V43.8241C0 44.0126 0.373333 44.0126 0.373333 43.8241C0.373333 32.298 5.49333 23.2496 19.7867 23.2496H22.2133C22.5867 23.2496 22.8 23.4381 22.8 23.6535V98.3304C22.8 98.6266 22.6133 98.7343 22.2133 98.7343H18.4267C18.24 98.7343 18.24 99.1383 18.4267 99.1383H41.3867C43.1733 99.7038 45.12 99.9462 47.0933 99.9462C52.2133 99.9462 57.2267 97.8725 58.48 93.5907C59.1467 97.2532 61.3867 99.9462 65.52 99.9462C68.7733 99.9462 70.96 98.2496 72.0267 96.6068C73.3067 98.869 75.5733 100.027 78.64 100.027C80.1867 100.027 81.5733 99.7038 82.7467 99.1383H111.787C113.547 99.7038 115.44 100.027 117.413 100.027C124.187 100.027 129.68 96.3375 133.253 90.6822C133.36 90.4937 133.067 90.386 132.96 90.4937C129.573 95.9605 124.267 99.5153 117.413 99.5153C114.907 99.5153 112.293 99.0305 110.267 97.2262C107.067 94.4524 106.027 89.9821 106.027 78.0521C106.027 77.1634 106.027 76.3555 106.133 75.5745H134.053C134.24 75.5745 134.347 75.4668 134.347 75.2783C134.347 69.2998 131.253 60.4668 123.813 57.2083H136.133C136.507 57.2083 136.72 57.3968 136.72 57.6122V98.4381C136.72 98.6266 136.533 98.7343 136.133 98.7343H132.347C132.16 98.7343 132.16 99.1383 132.347 99.1383H148.72C148.907 99.1383 148.907 98.7343 148.72 98.7343H145.013C144.533 98.7343 144.347 98.6266 144.347 98.4381V64.7487C146.48 57.8007 149.173 57.2083 150.613 57.2083C152.053 57.2083 153.04 57.8007 153.04 59.2819C153.04 60.763 151.973 60.9785 151.973 62.8636C151.973 64.5602 153.413 65.9336 155.92 65.9336C158.133 65.9336 159.973 64.0485 159.973 61.7594C160 57.9892 157.787 55.8887 153.333 55.8887ZM58 92.2711C58 95.9336 53.5467 99.219 48.8267 99.219C45.84 99.219 41.7867 98.1149 41.7867 89.5781C41.7867 80.4488 45.2533 77.8636 48.4533 77.2711C51.2533 76.6786 55.8933 76.7864 58.0267 75.2783V92.2711H58ZM88.0533 98.7074H83.5467C85.68 97.4147 87.1733 94.7756 88.08 92.0826L88.0533 98.7074ZM106.16 74.9282C106.347 66.6876 107.413 61.167 110.32 58.5817C112.347 56.8043 114.96 56.2926 117.467 56.2926C119.6 56.2926 121.627 56.7774 123.253 58.5817C125.68 61.167 126.453 66.6876 126.64 74.9282H106.16Z" fill="black"/>
</svg>
